<svg width="100%" height="100%" viewBox="0 0 2000 1400" xmlns="http://www.w3.org/2000/svg" > <mask id="radialMask" x="0" y="0" width="2000" height="1400"> <rect x="0" y="0" width="2000" height="1400" fill="url(#maskRadialGradient)" stroke="none" /> </mask> <rect x="0" y="0" width="2000" height="1400" stroke="none" stroke-width="0" fill="#000336" /> <g mask="url(#radialMask)"> <g transform="scale(1) rotate(0) skewX(0) skewY(0)" style="transform-origin: center center"> <rect x="0" y="0" width="100" height="100" stroke="#4c4e72" stroke-width="2" fill="none" /> <rect x="100" y="0" width="100" height="100" stroke="#4c4e72" stroke-width="2" fill="#4c4e7206" /> <rect x="200" y="0" width="100" height="100" stroke="#4c4e72" stroke-width="2" fill="none" /> <rect x="300" y="0" width="100" height="100" stroke="#4c4e72" stroke-width="2" fill="#4c4e72ce" /> <rect x="400" y="0" width="100" height="100" stroke="#4c4e72" stroke-width="2" fill="#4c4e729c" /> <rect x="500" y="0" width="100" height="100" stroke="#4c4e72" stroke-width="2" fill="none" /> <rect x="600" y="0" width="100" height="100" stroke="#4c4e72" stroke-width="2" fill="none" /> <rect x="700" y="0" width="100" height="100" stroke="#4c4e72" stroke-width="2" fill="#4c4e7285" /> <rect x="800" y="0" width="100" height="100" stroke="#4c4e72" stroke-width="2" fill="none" /> <rect x="900" y="0" width="100" height="100" stroke="#4c4e72" stroke-width="2" fill="none" /> <rect x="1000" y="0" width="100" height="100" stroke="#4c4e72" stroke-width="2" fill="none" /> <rect x="1100" y="0" width="100" height="100" stroke="#4c4e72" stroke-width="2" fill="none" /> <rect x="1200" y="0" width="100" height="100" stroke="#4c4e72" stroke-width="2" fill="none" /> <rect x="1300" y="0" width="100" height="100" stroke="#4c4e72" stroke-width="2" fill="#4c4e725d" /> <rect x="1400" y="0" width="100" height="100" stroke="#4c4e72" stroke-width="2" fill="#4c4e72b4" /> <rect x="1500" y="0" width="100" height="100" stroke="#4c4e72" stroke-width="2" fill="#4c4e7216" /> <rect x="1600" y="0" width="100" height="100" stroke="#4c4e72" stroke-width="2" fill="none" /> <rect x="1700" y="0" width="100" height="100" stroke="#4c4e72" stroke-width="2" fill="none" /> <rect x="1800" y="0" width="100" height="100" stroke="#4c4e72" stroke-width="2" fill="none" /> <rect x="1900" y="0" width="100" height="100" stroke="#4c4e72" stroke-width="2" fill="none" /> <rect x="0" y="100" width="100" height="100" stroke="#4c4e72" stroke-width="2" fill="none" /> <rect x="100" y="100" width="100" height="100" stroke="#4c4e72" stroke-width="2" fill="none" /> <rect x="200" y="100" width="100" height="100" stroke="#4c4e72" stroke-width="2" fill="#4c4e7229" /> <rect x="300" y="100" width="100" height="100" stroke="#4c4e72" stroke-width="2" fill="#4c4e72e3" /> <rect x="400" y="100" width="100" height="100" stroke="#4c4e72" stroke-width="2" fill="none" /> <rect x="500" y="100" width="100" height="100" stroke="#4c4e72" stroke-width="2" fill="#4c4e7262" /> <rect x="600" y="100" width="100" height="100" stroke="#4c4e72" stroke-width="2" fill="none" /> <rect x="700" y="100" width="100" height="100" stroke="#4c4e72" stroke-width="2" fill="none" /> <rect x="800" y="100" width="100" height="100" stroke="#4c4e72" stroke-width="2" fill="none" /> <rect x="900" y="100" width="100" height="100" stroke="#4c4e72" stroke-width="2" fill="#4c4e7231" /> <rect x="1000" y="100" width="100" height="100" stroke="#4c4e72" stroke-width="2" fill="none" /> <rect x="1100" y="100" width="100" height="100" stroke="#4c4e72" stroke-width="2" fill="none" /> <rect x="1200" y="100" width="100" height="100" stroke="#4c4e72" stroke-width="2" fill="none" /> <rect x="1300" y="100" width="100" height="100" stroke="#4c4e72" stroke-width="2" fill="#4c4e7283" /> <rect x="1400" y="100" width="100" height="100" stroke="#4c4e72" stroke-width="2" fill="none" /> <rect x="1500" y="100" width="100" height="100" stroke="#4c4e72" stroke-width="2" fill="none" /> <rect x="1600" y="100" width="100" height="100" stroke="#4c4e72" stroke-width="2" fill="#4c4e72be" /> <rect x="1700" y="100" width="100" height="100" stroke="#4c4e72" stroke-width="2" fill="#4c4e7259" /> <rect x="1800" y="100" width="100" height="100" stroke="#4c4e72" stroke-width="2" fill="none" /> <rect x="1900" y="100" width="100" height="100" stroke="#4c4e72" stroke-width="2" fill="none" /> <rect x="0" y="200" width="100" height="100" stroke="#4c4e72" stroke-width="2" fill="#4c4e7237" /> <rect x="100" y="200" width="100" height="100" stroke="#4c4e72" stroke-width="2" fill="none" /> <rect x="200" y="200" width="100" height="100" stroke="#4c4e72" stroke-width="2" fill="none" /> <rect x="300" y="200" width="100" height="100" stroke="#4c4e72" stroke-width="2" fill="none" /> <rect x="400" y="200" width="100" height="100" stroke="#4c4e72" stroke-width="2" fill="none" /> <rect x="500" y="200" width="100" height="100" stroke="#4c4e72" stroke-width="2" fill="none" /> <rect x="600" y="200" width="100" height="100" stroke="#4c4e72" stroke-width="2" fill="none" /> <rect x="700" y="200" width="100" height="100" stroke="#4c4e72" stroke-width="2" fill="#4c4e7246" /> <rect x="800" y="200" width="100" height="100" stroke="#4c4e72" stroke-width="2" fill="none" /> <rect x="900" y="200" width="100" height="100" stroke="#4c4e72" stroke-width="2" fill="none" /> <rect x="1000" y="200" width="100" height="100" stroke="#4c4e72" stroke-width="2" fill="none" /> <rect x="1100" y="200" width="100" height="100" stroke="#4c4e72" stroke-width="2" fill="none" /> <rect x="1200" y="200" width="100" height="100" stroke="#4c4e72" stroke-width="2" fill="#4c4e7265" /> <rect x="1300" y="200" width="100" height="100" stroke="#4c4e72" stroke-width="2" fill="#4c4e726b" /> <rect x="1400" y="200" width="100" height="100" stroke="#4c4e72" stroke-width="2" fill="#4c4e727e" /> <rect x="1500" y="200" width="100" height="100" stroke="#4c4e72" stroke-width="2" fill="none" /> <rect x="1600" y="200" width="100" height="100" stroke="#4c4e72" stroke-width="2" fill="#4c4e7270" /> <rect x="1700" y="200" width="100" height="100" stroke="#4c4e72" stroke-width="2" fill="none" /> <rect x="1800" y="200" width="100" height="100" stroke="#4c4e72" stroke-width="2" fill="none" /> <rect x="1900" y="200" width="100" height="100" stroke="#4c4e72" stroke-width="2" fill="none" /> <rect x="0" y="300" width="100" height="100" stroke="#4c4e72" stroke-width="2" fill="#4c4e7224" /> <rect x="100" y="300" width="100" height="100" stroke="#4c4e72" stroke-width="2" fill="none" /> <rect x="200" y="300" width="100" height="100" stroke="#4c4e72" stroke-width="2" fill="none" /> <rect x="300" y="300" width="100" height="100" stroke="#4c4e72" stroke-width="2" fill="none" /> <rect x="400" y="300" width="100" height="100" stroke="#4c4e72" stroke-width="2" fill="none" /> <rect x="500" y="300" width="100" height="100" stroke="#4c4e72" stroke-width="2" fill="#4c4e728f" /> <rect x="600" y="300" width="100" height="100" stroke="#4c4e72" stroke-width="2" fill="none" /> <rect x="700" y="300" width="100" height="100" stroke="#4c4e72" stroke-width="2" fill="#4c4e7286" /> <rect x="800" y="300" width="100" height="100" stroke="#4c4e72" stroke-width="2" fill="#4c4e7244" /> <rect x="900" y="300" width="100" height="100" stroke="#4c4e72" stroke-width="2" fill="none" /> <rect x="1000" y="300" width="100" height="100" stroke="#4c4e72" stroke-width="2" fill="none" /> <rect x="1100" y="300" width="100" height="100" stroke="#4c4e72" stroke-width="2" fill="#4c4e722f" /> <rect x="1200" y="300" width="100" height="100" stroke="#4c4e72" stroke-width="2" fill="none" /> <rect x="1300" y="300" width="100" height="100" stroke="#4c4e72" stroke-width="2" fill="none" /> <rect x="1400" y="300" width="100" height="100" stroke="#4c4e72" stroke-width="2" fill="none" /> <rect x="1500" y="300" width="100" height="100" stroke="#4c4e72" stroke-width="2" fill="#4c4e7217" /> <rect x="1600" y="300" width="100" height="100" stroke="#4c4e72" stroke-width="2" fill="none" /> <rect x="1700" y="300" width="100" height="100" stroke="#4c4e72" stroke-width="2" fill="#4c4e72f9" /> <rect x="1800" y="300" width="100" height="100" stroke="#4c4e72" stroke-width="2" fill="none" /> <rect x="1900" y="300" width="100" height="100" stroke="#4c4e72" stroke-width="2" fill="none" /> <rect x="0" y="400" width="100" height="100" stroke="#4c4e72" stroke-width="2" fill="#4c4e7205" /> <rect x="100" y="400" width="100" height="100" stroke="#4c4e72" stroke-width="2" fill="none" /> <rect x="200" y="400" width="100" height="100" stroke="#4c4e72" stroke-width="2" fill="none" /> <rect x="300" y="400" width="100" height="100" stroke="#4c4e72" stroke-width="2" fill="none" /> <rect x="400" y="400" width="100" height="100" stroke="#4c4e72" stroke-width="2" fill="none" /> <rect x="500" y="400" width="100" height="100" stroke="#4c4e72" stroke-width="2" fill="none" /> <rect x="600" y="400" width="100" height="100" stroke="#4c4e72" stroke-width="2" fill="none" /> <rect x="700" y="400" width="100" height="100" stroke="#4c4e72" stroke-width="2" fill="none" /> <rect x="800" y="400" width="100" height="100" stroke="#4c4e72" stroke-width="2" fill="none" /> <rect x="900" y="400" width="100" height="100" stroke="#4c4e72" stroke-width="2" fill="none" /> <rect x="1000" y="400" width="100" height="100" stroke="#4c4e72" stroke-width="2" fill="none" /> <rect x="1100" y="400" width="100" height="100" stroke="#4c4e72" stroke-width="2" fill="none" /> <rect x="1200" y="400" width="100" height="100" stroke="#4c4e72" stroke-width="2" fill="none" /> <rect x="1300" y="400" width="100" height="100" stroke="#4c4e72" stroke-width="2" fill="#4c4e72dd" /> <rect x="1400" y="400" width="100" height="100" stroke="#4c4e72" stroke-width="2" fill="none" /> <rect x="1500" y="400" width="100" height="100" stroke="#4c4e72" stroke-width="2" fill="none" /> <rect x="1600" y="400" width="100" height="100" stroke="#4c4e72" stroke-width="2" fill="none" /> <rect x="1700" y="400" width="100" height="100" stroke="#4c4e72" stroke-width="2" fill="none" /> <rect x="1800" y="400" width="100" height="100" stroke="#4c4e72" stroke-width="2" fill="none" /> <rect x="1900" y="400" width="100" height="100" stroke="#4c4e72" stroke-width="2" fill="none" /> <rect x="0" y="500" width="100" height="100" stroke="#4c4e72" stroke-width="2" fill="#4c4e72ee" /> <rect x="100" y="500" width="100" height="100" stroke="#4c4e72" stroke-width="2" fill="none" /> <rect x="200" y="500" width="100" height="100" stroke="#4c4e72" stroke-width="2" fill="none" /> <rect x="300" y="500" width="100" height="100" stroke="#4c4e72" stroke-width="2" fill="#4c4e725f" /> <rect x="400" y="500" width="100" height="100" stroke="#4c4e72" stroke-width="2" fill="#4c4e7277" /> <rect x="500" y="500" width="100" height="100" stroke="#4c4e72" stroke-width="2" fill="none" /> <rect x="600" y="500" width="100" height="100" stroke="#4c4e72" stroke-width="2" fill="#4c4e72f4" /> <rect x="700" y="500" width="100" height="100" stroke="#4c4e72" stroke-width="2" fill="none" /> <rect x="800" y="500" width="100" height="100" stroke="#4c4e72" stroke-width="2" fill="none" /> <rect x="900" y="500" width="100" height="100" stroke="#4c4e72" stroke-width="2" fill="none" /> <rect x="1000" y="500" width="100" height="100" stroke="#4c4e72" stroke-width="2" fill="#4c4e72d7" /> <rect x="1100" y="500" width="100" height="100" stroke="#4c4e72" stroke-width="2" fill="none" /> <rect x="1200" y="500" width="100" height="100" stroke="#4c4e72" stroke-width="2" fill="#4c4e72d1" /> <rect x="1300" y="500" width="100" height="100" stroke="#4c4e72" stroke-width="2" fill="none" /> <rect x="1400" y="500" width="100" height="100" stroke="#4c4e72" stroke-width="2" fill="#4c4e728d" /> <rect x="1500" y="500" width="100" height="100" stroke="#4c4e72" stroke-width="2" fill="none" /> <rect x="1600" y="500" width="100" height="100" stroke="#4c4e72" stroke-width="2" fill="none" /> <rect x="1700" y="500" width="100" height="100" stroke="#4c4e72" stroke-width="2" fill="#4c4e72ed" /> <rect x="1800" y="500" width="100" height="100" stroke="#4c4e72" stroke-width="2" fill="none" /> <rect x="1900" y="500" width="100" height="100" stroke="#4c4e72" stroke-width="2" fill="none" /> <rect x="0" y="600" width="100" height="100" stroke="#4c4e72" stroke-width="2" fill="none" /> <rect x="100" y="600" width="100" height="100" stroke="#4c4e72" stroke-width="2" fill="#4c4e7229" /> <rect x="200" y="600" width="100" height="100" stroke="#4c4e72" stroke-width="2" fill="none" /> <rect x="300" y="600" width="100" height="100" stroke="#4c4e72" stroke-width="2" fill="none" /> <rect x="400" y="600" width="100" height="100" stroke="#4c4e72" stroke-width="2" fill="none" /> <rect x="500" y="600" width="100" height="100" stroke="#4c4e72" stroke-width="2" fill="none" /> <rect x="600" y="600" width="100" height="100" stroke="#4c4e72" stroke-width="2" fill="none" /> <rect x="700" y="600" width="100" height="100" stroke="#4c4e72" stroke-width="2" fill="none" /> <rect x="800" y="600" width="100" height="100" stroke="#4c4e72" stroke-width="2" fill="none" /> <rect x="900" y="600" width="100" height="100" stroke="#4c4e72" stroke-width="2" fill="#4c4e72d0" /> <rect x="1000" y="600" width="100" height="100" stroke="#4c4e72" stroke-width="2" fill="none" /> <rect x="1100" y="600" width="100" height="100" stroke="#4c4e72" stroke-width="2" fill="none" /> <rect x="1200" y="600" width="100" height="100" stroke="#4c4e72" stroke-width="2" fill="none" /> <rect x="1300" y="600" width="100" height="100" stroke="#4c4e72" stroke-width="2" fill="none" /> <rect x="1400" y="600" width="100" height="100" stroke="#4c4e72" stroke-width="2" fill="none" /> <rect x="1500" y="600" width="100" height="100" stroke="#4c4e72" stroke-width="2" fill="none" /> <rect x="1600" y="600" width="100" height="100" stroke="#4c4e72" stroke-width="2" fill="none" /> <rect x="1700" y="600" width="100" height="100" stroke="#4c4e72" stroke-width="2" fill="none" /> <rect x="1800" y="600" width="100" height="100" stroke="#4c4e72" stroke-width="2" fill="none" /> <rect x="1900" y="600" width="100" height="100" stroke="#4c4e72" stroke-width="2" fill="none" /> <rect x="0" y="700" width="100" height="100" stroke="#4c4e72" stroke-width="2" fill="none" /> <rect x="100" y="700" width="100" height="100" stroke="#4c4e72" stroke-width="2" fill="none" /> <rect x="200" y="700" width="100" height="100" stroke="#4c4e72" stroke-width="2" fill="none" /> <rect x="300" y="700" width="100" height="100" stroke="#4c4e72" stroke-width="2" fill="none" /> <rect x="400" y="700" width="100" height="100" stroke="#4c4e72" stroke-width="2" fill="#4c4e7286" /> <rect x="500" y="700" width="100" height="100" stroke="#4c4e72" stroke-width="2" fill="none" /> <rect x="600" y="700" width="100" height="100" stroke="#4c4e72" stroke-width="2" fill="none" /> <rect x="700" y="700" width="100" height="100" stroke="#4c4e72" stroke-width="2" fill="none" /> <rect x="800" y="700" width="100" height="100" stroke="#4c4e72" stroke-width="2" fill="none" /> <rect x="900" y="700" width="100" height="100" stroke="#4c4e72" stroke-width="2" fill="#4c4e72fb" /> <rect x="1000" y="700" width="100" height="100" stroke="#4c4e72" stroke-width="2" fill="none" /> <rect x="1100" y="700" width="100" height="100" stroke="#4c4e72" stroke-width="2" fill="none" /> <rect x="1200" y="700" width="100" height="100" stroke="#4c4e72" stroke-width="2" fill="#4c4e7259" /> <rect x="1300" y="700" width="100" height="100" stroke="#4c4e72" stroke-width="2" fill="none" /> <rect x="1400" y="700" width="100" height="100" stroke="#4c4e72" stroke-width="2" fill="#4c4e7226" /> <rect x="1500" y="700" width="100" height="100" stroke="#4c4e72" stroke-width="2" fill="#4c4e72d6" /> <rect x="1600" y="700" width="100" height="100" stroke="#4c4e72" stroke-width="2" fill="none" /> <rect x="1700" y="700" width="100" height="100" stroke="#4c4e72" stroke-width="2" fill="none" /> <rect x="1800" y="700" width="100" height="100" stroke="#4c4e72" stroke-width="2" fill="#4c4e7270" /> <rect x="1900" y="700" width="100" height="100" stroke="#4c4e72" stroke-width="2" fill="#4c4e72c1" /> <rect x="0" y="800" width="100" height="100" stroke="#4c4e72" stroke-width="2" fill="none" /> <rect x="100" y="800" width="100" height="100" stroke="#4c4e72" stroke-width="2" fill="none" /> <rect x="200" y="800" width="100" height="100" stroke="#4c4e72" stroke-width="2" fill="none" /> <rect x="300" y="800" width="100" height="100" stroke="#4c4e72" stroke-width="2" fill="#4c4e72fd" /> <rect x="400" y="800" width="100" height="100" stroke="#4c4e72" stroke-width="2" fill="none" /> <rect x="500" y="800" width="100" height="100" stroke="#4c4e72" stroke-width="2" fill="none" /> <rect x="600" y="800" width="100" height="100" stroke="#4c4e72" stroke-width="2" fill="none" /> <rect x="700" y="800" width="100" height="100" stroke="#4c4e72" stroke-width="2" fill="none" /> <rect x="800" y="800" width="100" height="100" stroke="#4c4e72" stroke-width="2" fill="#4c4e7201" /> <rect x="900" y="800" width="100" height="100" stroke="#4c4e72" stroke-width="2" fill="none" /> <rect x="1000" y="800" width="100" height="100" stroke="#4c4e72" stroke-width="2" fill="none" /> <rect x="1100" y="800" width="100" height="100" stroke="#4c4e72" stroke-width="2" fill="none" /> <rect x="1200" y="800" width="100" height="100" stroke="#4c4e72" stroke-width="2" fill="none" /> <rect x="1300" y="800" width="100" height="100" stroke="#4c4e72" stroke-width="2" fill="none" /> <rect x="1400" y="800" width="100" height="100" stroke="#4c4e72" stroke-width="2" fill="#4c4e72e9" /> <rect x="1500" y="800" width="100" height="100" stroke="#4c4e72" stroke-width="2" fill="none" /> <rect x="1600" y="800" width="100" height="100" stroke="#4c4e72" stroke-width="2" fill="#4c4e7241" /> <rect x="1700" y="800" width="100" height="100" stroke="#4c4e72" stroke-width="2" fill="#4c4e72ec" /> <rect x="1800" y="800" width="100" height="100" stroke="#4c4e72" stroke-width="2" fill="none" /> <rect x="1900" y="800" width="100" height="100" stroke="#4c4e72" stroke-width="2" fill="none" /> <rect x="0" y="900" width="100" height="100" stroke="#4c4e72" stroke-width="2" fill="#4c4e72bd" /> <rect x="100" y="900" width="100" height="100" stroke="#4c4e72" stroke-width="2" fill="#4c4e7236" /> <rect x="200" y="900" width="100" height="100" stroke="#4c4e72" stroke-width="2" fill="none" /> <rect x="300" y="900" width="100" height="100" stroke="#4c4e72" stroke-width="2" fill="none" /> <rect x="400" y="900" width="100" height="100" stroke="#4c4e72" stroke-width="2" fill="none" /> <rect x="500" y="900" width="100" height="100" stroke="#4c4e72" stroke-width="2" fill="#4c4e725c" /> <rect x="600" y="900" width="100" height="100" stroke="#4c4e72" stroke-width="2" fill="none" /> <rect x="700" y="900" width="100" height="100" stroke="#4c4e72" stroke-width="2" fill="none" /> <rect x="800" y="900" width="100" height="100" stroke="#4c4e72" stroke-width="2" fill="none" /> <rect x="900" y="900" width="100" height="100" stroke="#4c4e72" stroke-width="2" fill="none" /> <rect x="1000" y="900" width="100" height="100" stroke="#4c4e72" stroke-width="2" fill="#4c4e72d8" /> <rect x="1100" y="900" width="100" height="100" stroke="#4c4e72" stroke-width="2" fill="none" /> <rect x="1200" y="900" width="100" height="100" stroke="#4c4e72" stroke-width="2" fill="none" /> <rect x="1300" y="900" width="100" height="100" stroke="#4c4e72" stroke-width="2" fill="none" /> <rect x="1400" y="900" width="100" height="100" stroke="#4c4e72" stroke-width="2" fill="none" /> <rect x="1500" y="900" width="100" height="100" stroke="#4c4e72" stroke-width="2" fill="none" /> <rect x="1600" y="900" width="100" height="100" stroke="#4c4e72" stroke-width="2" fill="none" /> <rect x="1700" y="900" width="100" height="100" stroke="#4c4e72" stroke-width="2" fill="none" /> <rect x="1800" y="900" width="100" height="100" stroke="#4c4e72" stroke-width="2" fill="none" /> <rect x="1900" y="900" width="100" height="100" stroke="#4c4e72" stroke-width="2" fill="#4c4e725f" /> <rect x="0" y="1000" width="100" height="100" stroke="#4c4e72" stroke-width="2" fill="none" /> <rect x="100" y="1000" width="100" height="100" stroke="#4c4e72" stroke-width="2" fill="none" /> <rect x="200" y="1000" width="100" height="100" stroke="#4c4e72" stroke-width="2" fill="none" /> <rect x="300" y="1000" width="100" height="100" stroke="#4c4e72" stroke-width="2" fill="#4c4e727e" /> <rect x="400" y="1000" width="100" height="100" stroke="#4c4e72" stroke-width="2" fill="none" /> <rect x="500" y="1000" width="100" height="100" stroke="#4c4e72" stroke-width="2" fill="none" /> <rect x="600" y="1000" width="100" height="100" stroke="#4c4e72" stroke-width="2" fill="none" /> <rect x="700" y="1000" width="100" height="100" stroke="#4c4e72" stroke-width="2" fill="none" /> <rect x="800" y="1000" width="100" height="100" stroke="#4c4e72" stroke-width="2" fill="none" /> <rect x="900" y="1000" width="100" height="100" stroke="#4c4e72" stroke-width="2" fill="none" /> <rect x="1000" y="1000" width="100" height="100" stroke="#4c4e72" stroke-width="2" fill="#4c4e7244" /> <rect x="1100" y="1000" width="100" height="100" stroke="#4c4e72" stroke-width="2" fill="none" /> <rect x="1200" y="1000" width="100" height="100" stroke="#4c4e72" stroke-width="2" fill="#4c4e727e" /> <rect x="1300" y="1000" width="100" height="100" stroke="#4c4e72" stroke-width="2" fill="none" /> <rect x="1400" y="1000" width="100" height="100" stroke="#4c4e72" stroke-width="2" fill="none" /> <rect x="1500" y="1000" width="100" height="100" stroke="#4c4e72" stroke-width="2" fill="none" /> <rect x="1600" y="1000" width="100" height="100" stroke="#4c4e72" stroke-width="2" fill="#4c4e7223" /> <rect x="1700" y="1000" width="100" height="100" stroke="#4c4e72" stroke-width="2" fill="none" /> <rect x="1800" y="1000" width="100" height="100" stroke="#4c4e72" stroke-width="2" fill="#4c4e720a" /> <rect x="1900" y="1000" width="100" height="100" stroke="#4c4e72" stroke-width="2" fill="#4c4e72ce" /> <rect x="0" y="1100" width="100" height="100" stroke="#4c4e72" stroke-width="2" fill="#4c4e72e2" /> <rect x="100" y="1100" width="100" height="100" stroke="#4c4e72" stroke-width="2" fill="none" /> <rect x="200" y="1100" width="100" height="100" stroke="#4c4e72" stroke-width="2" fill="none" /> <rect x="300" y="1100" width="100" height="100" stroke="#4c4e72" stroke-width="2" fill="#4c4e7248" /> <rect x="400" y="1100" width="100" height="100" stroke="#4c4e72" stroke-width="2" fill="#4c4e7218" /> <rect x="500" y="1100" width="100" height="100" stroke="#4c4e72" stroke-width="2" fill="none" /> <rect x="600" y="1100" width="100" height="100" stroke="#4c4e72" stroke-width="2" fill="none" /> <rect x="700" y="1100" width="100" height="100" stroke="#4c4e72" stroke-width="2" fill="#4c4e7259" /> <rect x="800" y="1100" width="100" height="100" stroke="#4c4e72" stroke-width="2" fill="none" /> <rect x="900" y="1100" width="100" height="100" stroke="#4c4e72" stroke-width="2" fill="#4c4e727a" /> <rect x="1000" y="1100" width="100" height="100" stroke="#4c4e72" stroke-width="2" fill="#4c4e72cf" /> <rect x="1100" y="1100" width="100" height="100" stroke="#4c4e72" stroke-width="2" fill="none" /> <rect x="1200" y="1100" width="100" height="100" stroke="#4c4e72" stroke-width="2" fill="none" /> <rect x="1300" y="1100" width="100" height="100" stroke="#4c4e72" stroke-width="2" fill="#4c4e72d0" /> <rect x="1400" y="1100" width="100" height="100" stroke="#4c4e72" stroke-width="2" fill="none" /> <rect x="1500" y="1100" width="100" height="100" stroke="#4c4e72" stroke-width="2" fill="none" /> <rect x="1600" y="1100" width="100" height="100" stroke="#4c4e72" stroke-width="2" fill="none" /> <rect x="1700" y="1100" width="100" height="100" stroke="#4c4e72" stroke-width="2" fill="none" /> <rect x="1800" y="1100" width="100" height="100" stroke="#4c4e72" stroke-width="2" fill="#4c4e723c" /> <rect x="1900" y="1100" width="100" height="100" stroke="#4c4e72" stroke-width="2" fill="none" /> <rect x="0" y="1200" width="100" height="100" stroke="#4c4e72" stroke-width="2" fill="none" /> <rect x="100" y="1200" width="100" height="100" stroke="#4c4e72" stroke-width="2" fill="#4c4e7254" /> <rect x="200" y="1200" width="100" height="100" stroke="#4c4e72" stroke-width="2" fill="none" /> <rect x="300" y="1200" width="100" height="100" stroke="#4c4e72" stroke-width="2" fill="#4c4e7207" /> <rect x="400" y="1200" width="100" height="100" stroke="#4c4e72" stroke-width="2" fill="#4c4e7288" /> <rect x="500" y="1200" width="100" height="100" stroke="#4c4e72" stroke-width="2" fill="none" /> <rect x="600" y="1200" width="100" height="100" stroke="#4c4e72" stroke-width="2" fill="none" /> <rect x="700" y="1200" width="100" height="100" stroke="#4c4e72" stroke-width="2" fill="none" /> <rect x="800" y="1200" width="100" height="100" stroke="#4c4e72" stroke-width="2" fill="none" /> <rect x="900" y="1200" width="100" height="100" stroke="#4c4e72" stroke-width="2" fill="#4c4e72fb" /> <rect x="1000" y="1200" width="100" height="100" stroke="#4c4e72" stroke-width="2" fill="#4c4e724f" /> <rect x="1100" y="1200" width="100" height="100" stroke="#4c4e72" stroke-width="2" fill="#4c4e72fc" /> <rect x="1200" y="1200" width="100" height="100" stroke="#4c4e72" stroke-width="2" fill="none" /> <rect x="1300" y="1200" width="100" height="100" stroke="#4c4e72" stroke-width="2" fill="#4c4e7277" /> <rect x="1400" y="1200" width="100" height="100" stroke="#4c4e72" stroke-width="2" fill="none" /> <rect x="1500" y="1200" width="100" height="100" stroke="#4c4e72" stroke-width="2" fill="#4c4e72ae" /> <rect x="1600" y="1200" width="100" height="100" stroke="#4c4e72" stroke-width="2" fill="none" /> <rect x="1700" y="1200" width="100" height="100" stroke="#4c4e72" stroke-width="2" fill="#4c4e72e9" /> <rect x="1800" y="1200" width="100" height="100" stroke="#4c4e72" stroke-width="2" fill="#4c4e72e7" /> <rect x="1900" y="1200" width="100" height="100" stroke="#4c4e72" stroke-width="2" fill="#4c4e7279" /> <rect x="0" y="1300" width="100" height="100" stroke="#4c4e72" stroke-width="2" fill="#4c4e7252" /> <rect x="100" y="1300" width="100" height="100" stroke="#4c4e72" stroke-width="2" fill="none" /> <rect x="200" y="1300" width="100" height="100" stroke="#4c4e72" stroke-width="2" fill="none" /> <rect x="300" y="1300" width="100" height="100" stroke="#4c4e72" stroke-width="2" fill="#4c4e723a" /> <rect x="400" y="1300" width="100" height="100" stroke="#4c4e72" stroke-width="2" fill="none" /> <rect x="500" y="1300" width="100" height="100" stroke="#4c4e72" stroke-width="2" fill="none" /> <rect x="600" y="1300" width="100" height="100" stroke="#4c4e72" stroke-width="2" fill="none" /> <rect x="700" y="1300" width="100" height="100" stroke="#4c4e72" stroke-width="2" fill="none" /> <rect x="800" y="1300" width="100" height="100" stroke="#4c4e72" stroke-width="2" fill="#4c4e7252" /> <rect x="900" y="1300" width="100" height="100" stroke="#4c4e72" stroke-width="2" fill="none" /> <rect x="1000" y="1300" width="100" height="100" stroke="#4c4e72" stroke-width="2" fill="none" /> <rect x="1100" y="1300" width="100" height="100" stroke="#4c4e72" stroke-width="2" fill="none" /> <rect x="1200" y="1300" width="100" height="100" stroke="#4c4e72" stroke-width="2" fill="none" /> <rect x="1300" y="1300" width="100" height="100" stroke="#4c4e72" stroke-width="2" fill="none" /> <rect x="1400" y="1300" width="100" height="100" stroke="#4c4e72" stroke-width="2" fill="#4c4e7226" /> <rect x="1500" y="1300" width="100" height="100" stroke="#4c4e72" stroke-width="2" fill="none" /> <rect x="1600" y="1300" width="100" height="100" stroke="#4c4e72" stroke-width="2" fill="none" /> <rect x="1700" y="1300" width="100" height="100" stroke="#4c4e72" stroke-width="2" fill="#4c4e72c0" /> <rect x="1800" y="1300" width="100" height="100" stroke="#4c4e72" stroke-width="2" fill="none" /> <rect x="1900" y="1300" width="100" height="100" stroke="#4c4e72" stroke-width="2" fill="none" /> </g> </g> <defs> <radialGradient id="maskRadialGradient" > <stop offset="0" stop-color="white" /> <stop offset="1" stop-color="white" stop-opacity="0" /> </radialGradient> </defs> </svg>