<svg width="100%" height="100%" viewBox="0 0 2000 1400" xmlns="http://www.w3.org/2000/svg" > <mask id="radialMask" x="0" y="0" width="2000" height="1400"> <rect x="0" y="0" width="2000" height="1400" fill="url(#maskRadialGradient)" stroke="none" /> </mask> <rect x="0" y="0" width="2000" height="1400" stroke="none" stroke-width="0" fill="#ffffff" /> <g mask="url(#radialMask)"> <g transform="scale(1) rotate(0) skewX(0) skewY(0)" style="transform-origin: center center"> <rect x="0" y="0" width="100" height="100" stroke="#dddddd" stroke-width="2" fill="#dddddd88" /> <rect x="100" y="0" width="100" height="100" stroke="#dddddd" stroke-width="2" fill="none" /> <rect x="200" y="0" width="100" height="100" stroke="#dddddd" stroke-width="2" fill="#dddddd68" /> <rect x="300" y="0" width="100" height="100" stroke="#dddddd" stroke-width="2" fill="none" /> <rect x="400" y="0" width="100" height="100" stroke="#dddddd" stroke-width="2" fill="#dddddd57" /> <rect x="500" y="0" width="100" height="100" stroke="#dddddd" stroke-width="2" fill="#dddddd46" /> <rect x="600" y="0" width="100" height="100" stroke="#dddddd" stroke-width="2" fill="none" /> <rect x="700" y="0" width="100" height="100" stroke="#dddddd" stroke-width="2" fill="none" /> <rect x="800" y="0" width="100" height="100" stroke="#dddddd" stroke-width="2" fill="#dddddd20" /> <rect x="900" y="0" width="100" height="100" stroke="#dddddd" stroke-width="2" fill="none" /> <rect x="1000" y="0" width="100" height="100" stroke="#dddddd" stroke-width="2" fill="#dddddd96" /> <rect x="1100" y="0" width="100" height="100" stroke="#dddddd" stroke-width="2" fill="none" /> <rect x="1200" y="0" width="100" height="100" stroke="#dddddd" stroke-width="2" fill="none" /> <rect x="1300" y="0" width="100" height="100" stroke="#dddddd" stroke-width="2" fill="none" /> <rect x="1400" y="0" width="100" height="100" stroke="#dddddd" stroke-width="2" fill="none" /> <rect x="1500" y="0" width="100" height="100" stroke="#dddddd" stroke-width="2" fill="none" /> <rect x="1600" y="0" width="100" height="100" stroke="#dddddd" stroke-width="2" fill="none" /> <rect x="1700" y="0" width="100" height="100" stroke="#dddddd" stroke-width="2" fill="#dddddd59" /> <rect x="1800" y="0" width="100" height="100" stroke="#dddddd" stroke-width="2" fill="#dddddd94" /> <rect x="1900" y="0" width="100" height="100" stroke="#dddddd" stroke-width="2" fill="none" /> <rect x="0" y="100" width="100" height="100" stroke="#dddddd" stroke-width="2" fill="none" /> <rect x="100" y="100" width="100" height="100" stroke="#dddddd" stroke-width="2" fill="none" /> <rect x="200" y="100" width="100" height="100" stroke="#dddddd" stroke-width="2" fill="#dddddd90" /> <rect x="300" y="100" width="100" height="100" stroke="#dddddd" stroke-width="2" fill="none" /> <rect x="400" y="100" width="100" height="100" stroke="#dddddd" stroke-width="2" fill="none" /> <rect x="500" y="100" width="100" height="100" stroke="#dddddd" stroke-width="2" fill="none" /> <rect x="600" y="100" width="100" height="100" stroke="#dddddd" stroke-width="2" fill="#dddddd63" /> <rect x="700" y="100" width="100" height="100" stroke="#dddddd" stroke-width="2" fill="#ddddddeb" /> <rect x="800" y="100" width="100" height="100" stroke="#dddddd" stroke-width="2" fill="none" /> <rect x="900" y="100" width="100" height="100" stroke="#dddddd" stroke-width="2" fill="none" /> <rect x="1000" y="100" width="100" height="100" stroke="#dddddd" stroke-width="2" fill="#ddddddd9" /> <rect x="1100" y="100" width="100" height="100" stroke="#dddddd" stroke-width="2" fill="none" /> <rect x="1200" y="100" width="100" height="100" stroke="#dddddd" stroke-width="2" fill="none" /> <rect x="1300" y="100" width="100" height="100" stroke="#dddddd" stroke-width="2" fill="#dddddda9" /> <rect x="1400" y="100" width="100" height="100" stroke="#dddddd" stroke-width="2" fill="none" /> <rect x="1500" y="100" width="100" height="100" stroke="#dddddd" stroke-width="2" fill="none" /> <rect x="1600" y="100" width="100" height="100" stroke="#dddddd" stroke-width="2" fill="#dddddd76" /> <rect x="1700" y="100" width="100" height="100" stroke="#dddddd" stroke-width="2" fill="#dddddd1b" /> <rect x="1800" y="100" width="100" height="100" stroke="#dddddd" stroke-width="2" fill="none" /> <rect x="1900" y="100" width="100" height="100" stroke="#dddddd" stroke-width="2" fill="none" /> <rect x="0" y="200" width="100" height="100" stroke="#dddddd" stroke-width="2" fill="none" /> <rect x="100" y="200" width="100" height="100" stroke="#dddddd" stroke-width="2" fill="#dddddd86" /> <rect x="200" y="200" width="100" height="100" stroke="#dddddd" stroke-width="2" fill="none" /> <rect x="300" y="200" width="100" height="100" stroke="#dddddd" stroke-width="2" fill="none" /> <rect x="400" y="200" width="100" height="100" stroke="#dddddd" stroke-width="2" fill="none" /> <rect x="500" y="200" width="100" height="100" stroke="#dddddd" stroke-width="2" fill="none" /> <rect x="600" y="200" width="100" height="100" stroke="#dddddd" stroke-width="2" fill="none" /> <rect x="700" y="200" width="100" height="100" stroke="#dddddd" stroke-width="2" fill="#dddddd40" /> <rect x="800" y="200" width="100" height="100" stroke="#dddddd" stroke-width="2" fill="none" /> <rect x="900" y="200" width="100" height="100" stroke="#dddddd" stroke-width="2" fill="none" /> <rect x="1000" y="200" width="100" height="100" stroke="#dddddd" stroke-width="2" fill="none" /> <rect x="1100" y="200" width="100" height="100" stroke="#dddddd" stroke-width="2" fill="none" /> <rect x="1200" y="200" width="100" height="100" stroke="#dddddd" stroke-width="2" fill="none" /> <rect x="1300" y="200" width="100" height="100" stroke="#dddddd" stroke-width="2" fill="none" /> <rect x="1400" y="200" width="100" height="100" stroke="#dddddd" stroke-width="2" fill="none" /> <rect x="1500" y="200" width="100" height="100" stroke="#dddddd" stroke-width="2" fill="none" /> <rect x="1600" y="200" width="100" height="100" stroke="#dddddd" stroke-width="2" fill="#dddddd16" /> <rect x="1700" y="200" width="100" height="100" stroke="#dddddd" stroke-width="2" fill="none" /> <rect x="1800" y="200" width="100" height="100" stroke="#dddddd" stroke-width="2" fill="none" /> <rect x="1900" y="200" width="100" height="100" stroke="#dddddd" stroke-width="2" fill="none" /> <rect x="0" y="300" width="100" height="100" stroke="#dddddd" stroke-width="2" fill="none" /> <rect x="100" y="300" width="100" height="100" stroke="#dddddd" stroke-width="2" fill="#dddddd29" /> <rect x="200" y="300" width="100" height="100" stroke="#dddddd" stroke-width="2" fill="#dddddd19" /> <rect x="300" y="300" width="100" height="100" stroke="#dddddd" stroke-width="2" fill="none" /> <rect x="400" y="300" width="100" height="100" stroke="#dddddd" stroke-width="2" fill="none" /> <rect x="500" y="300" width="100" height="100" stroke="#dddddd" stroke-width="2" fill="none" /> <rect x="600" y="300" width="100" height="100" stroke="#dddddd" stroke-width="2" fill="none" /> <rect x="700" y="300" width="100" height="100" stroke="#dddddd" stroke-width="2" fill="none" /> <rect x="800" y="300" width="100" height="100" stroke="#dddddd" stroke-width="2" fill="none" /> <rect x="900" y="300" width="100" height="100" stroke="#dddddd" stroke-width="2" fill="#dddddd65" /> <rect x="1000" y="300" width="100" height="100" stroke="#dddddd" stroke-width="2" fill="none" /> <rect x="1100" y="300" width="100" height="100" stroke="#dddddd" stroke-width="2" fill="none" /> <rect x="1200" y="300" width="100" height="100" stroke="#dddddd" stroke-width="2" fill="none" /> <rect x="1300" y="300" width="100" height="100" stroke="#dddddd" stroke-width="2" fill="none" /> <rect x="1400" y="300" width="100" height="100" stroke="#dddddd" stroke-width="2" fill="#ddddddab" /> <rect x="1500" y="300" width="100" height="100" stroke="#dddddd" stroke-width="2" fill="none" /> <rect x="1600" y="300" width="100" height="100" stroke="#dddddd" stroke-width="2" fill="none" /> <rect x="1700" y="300" width="100" height="100" stroke="#dddddd" stroke-width="2" fill="none" /> <rect x="1800" y="300" width="100" height="100" stroke="#dddddd" stroke-width="2" fill="none" /> <rect x="1900" y="300" width="100" height="100" stroke="#dddddd" stroke-width="2" fill="#dddddd38" /> <rect x="0" y="400" width="100" height="100" stroke="#dddddd" stroke-width="2" fill="none" /> <rect x="100" y="400" width="100" height="100" stroke="#dddddd" stroke-width="2" fill="none" /> <rect x="200" y="400" width="100" height="100" stroke="#dddddd" stroke-width="2" fill="none" /> <rect x="300" y="400" width="100" height="100" stroke="#dddddd" stroke-width="2" fill="none" /> <rect x="400" y="400" width="100" height="100" stroke="#dddddd" stroke-width="2" fill="none" /> <rect x="500" y="400" width="100" height="100" stroke="#dddddd" stroke-width="2" fill="#dddddd9f" /> <rect x="600" y="400" width="100" height="100" stroke="#dddddd" stroke-width="2" fill="#dddddd52" /> <rect x="700" y="400" width="100" height="100" stroke="#dddddd" stroke-width="2" fill="none" /> <rect x="800" y="400" width="100" height="100" stroke="#dddddd" stroke-width="2" fill="#dddddd57" /> <rect x="900" y="400" width="100" height="100" stroke="#dddddd" stroke-width="2" fill="none" /> <rect x="1000" y="400" width="100" height="100" stroke="#dddddd" stroke-width="2" fill="none" /> <rect x="1100" y="400" width="100" height="100" stroke="#dddddd" stroke-width="2" fill="none" /> <rect x="1200" y="400" width="100" height="100" stroke="#dddddd" stroke-width="2" fill="#ddddddc8" /> <rect x="1300" y="400" width="100" height="100" stroke="#dddddd" stroke-width="2" fill="none" /> <rect x="1400" y="400" width="100" height="100" stroke="#dddddd" stroke-width="2" fill="none" /> <rect x="1500" y="400" width="100" height="100" stroke="#dddddd" stroke-width="2" fill="none" /> <rect x="1600" y="400" width="100" height="100" stroke="#dddddd" stroke-width="2" fill="none" /> <rect x="1700" y="400" width="100" height="100" stroke="#dddddd" stroke-width="2" fill="none" /> <rect x="1800" y="400" width="100" height="100" stroke="#dddddd" stroke-width="2" fill="none" /> <rect x="1900" y="400" width="100" height="100" stroke="#dddddd" stroke-width="2" fill="#ddddddd0" /> <rect x="0" y="500" width="100" height="100" stroke="#dddddd" stroke-width="2" fill="#dddddd25" /> <rect x="100" y="500" width="100" height="100" stroke="#dddddd" stroke-width="2" fill="none" /> <rect x="200" y="500" width="100" height="100" stroke="#dddddd" stroke-width="2" fill="none" /> <rect x="300" y="500" width="100" height="100" stroke="#dddddd" stroke-width="2" fill="none" /> <rect x="400" y="500" width="100" height="100" stroke="#dddddd" stroke-width="2" fill="none" /> <rect x="500" y="500" width="100" height="100" stroke="#dddddd" stroke-width="2" fill="#dddddd18" /> <rect x="600" y="500" width="100" height="100" stroke="#dddddd" stroke-width="2" fill="none" /> <rect x="700" y="500" width="100" height="100" stroke="#dddddd" stroke-width="2" fill="#dddddddc" /> <rect x="800" y="500" width="100" height="100" stroke="#dddddd" stroke-width="2" fill="#ddddddc6" /> <rect x="900" y="500" width="100" height="100" stroke="#dddddd" stroke-width="2" fill="none" /> <rect x="1000" y="500" width="100" height="100" stroke="#dddddd" stroke-width="2" fill="#ddddddf6" /> <rect x="1100" y="500" width="100" height="100" stroke="#dddddd" stroke-width="2" fill="none" /> <rect x="1200" y="500" width="100" height="100" stroke="#dddddd" stroke-width="2" fill="none" /> <rect x="1300" y="500" width="100" height="100" stroke="#dddddd" stroke-width="2" fill="none" /> <rect x="1400" y="500" width="100" height="100" stroke="#dddddd" stroke-width="2" fill="none" /> <rect x="1500" y="500" width="100" height="100" stroke="#dddddd" stroke-width="2" fill="#dddddd98" /> <rect x="1600" y="500" width="100" height="100" stroke="#dddddd" stroke-width="2" fill="none" /> <rect x="1700" y="500" width="100" height="100" stroke="#dddddd" stroke-width="2" fill="none" /> <rect x="1800" y="500" width="100" height="100" stroke="#dddddd" stroke-width="2" fill="none" /> <rect x="1900" y="500" width="100" height="100" stroke="#dddddd" stroke-width="2" fill="none" /> <rect x="0" y="600" width="100" height="100" stroke="#dddddd" stroke-width="2" fill="none" /> <rect x="100" y="600" width="100" height="100" stroke="#dddddd" stroke-width="2" fill="#dddddde4" /> <rect x="200" y="600" width="100" height="100" stroke="#dddddd" stroke-width="2" fill="none" /> <rect x="300" y="600" width="100" height="100" stroke="#dddddd" stroke-width="2" fill="none" /> <rect x="400" y="600" width="100" height="100" stroke="#dddddd" stroke-width="2" fill="none" /> <rect x="500" y="600" width="100" height="100" stroke="#dddddd" stroke-width="2" fill="#dddddd86" /> <rect x="600" y="600" width="100" height="100" stroke="#dddddd" stroke-width="2" fill="none" /> <rect x="700" y="600" width="100" height="100" stroke="#dddddd" stroke-width="2" fill="none" /> <rect x="800" y="600" width="100" height="100" stroke="#dddddd" stroke-width="2" fill="none" /> <rect x="900" y="600" width="100" height="100" stroke="#dddddd" stroke-width="2" fill="none" /> <rect x="1000" y="600" width="100" height="100" stroke="#dddddd" stroke-width="2" fill="none" /> <rect x="1100" y="600" width="100" height="100" stroke="#dddddd" stroke-width="2" fill="none" /> <rect x="1200" y="600" width="100" height="100" stroke="#dddddd" stroke-width="2" fill="none" /> <rect x="1300" y="600" width="100" height="100" stroke="#dddddd" stroke-width="2" fill="none" /> <rect x="1400" y="600" width="100" height="100" stroke="#dddddd" stroke-width="2" fill="none" /> <rect x="1500" y="600" width="100" height="100" stroke="#dddddd" stroke-width="2" fill="none" /> <rect x="1600" y="600" width="100" height="100" stroke="#dddddd" stroke-width="2" fill="none" /> <rect x="1700" y="600" width="100" height="100" stroke="#dddddd" stroke-width="2" fill="none" /> <rect x="1800" y="600" width="100" height="100" stroke="#dddddd" stroke-width="2" fill="none" /> <rect x="1900" y="600" width="100" height="100" stroke="#dddddd" stroke-width="2" fill="none" /> <rect x="0" y="700" width="100" height="100" stroke="#dddddd" stroke-width="2" fill="none" /> <rect x="100" y="700" width="100" height="100" stroke="#dddddd" stroke-width="2" fill="none" /> <rect x="200" y="700" width="100" height="100" stroke="#dddddd" stroke-width="2" fill="#ddddddef" /> <rect x="300" y="700" width="100" height="100" stroke="#dddddd" stroke-width="2" fill="none" /> <rect x="400" y="700" width="100" height="100" stroke="#dddddd" stroke-width="2" fill="none" /> <rect x="500" y="700" width="100" height="100" stroke="#dddddd" stroke-width="2" fill="none" /> <rect x="600" y="700" width="100" height="100" stroke="#dddddd" stroke-width="2" fill="#ddddddb7" /> <rect x="700" y="700" width="100" height="100" stroke="#dddddd" stroke-width="2" fill="#dddddd5e" /> <rect x="800" y="700" width="100" height="100" stroke="#dddddd" stroke-width="2" fill="none" /> <rect x="900" y="700" width="100" height="100" stroke="#dddddd" stroke-width="2" fill="none" /> <rect x="1000" y="700" width="100" height="100" stroke="#dddddd" stroke-width="2" fill="#dddddd58" /> <rect x="1100" y="700" width="100" height="100" stroke="#dddddd" stroke-width="2" fill="none" /> <rect x="1200" y="700" width="100" height="100" stroke="#dddddd" stroke-width="2" fill="none" /> <rect x="1300" y="700" width="100" height="100" stroke="#dddddd" stroke-width="2" fill="none" /> <rect x="1400" y="700" width="100" height="100" stroke="#dddddd" stroke-width="2" fill="none" /> <rect x="1500" y="700" width="100" height="100" stroke="#dddddd" stroke-width="2" fill="#dddddd5e" /> <rect x="1600" y="700" width="100" height="100" stroke="#dddddd" stroke-width="2" fill="none" /> <rect x="1700" y="700" width="100" height="100" stroke="#dddddd" stroke-width="2" fill="none" /> <rect x="1800" y="700" width="100" height="100" stroke="#dddddd" stroke-width="2" fill="none" /> <rect x="1900" y="700" width="100" height="100" stroke="#dddddd" stroke-width="2" fill="none" /> <rect x="0" y="800" width="100" height="100" stroke="#dddddd" stroke-width="2" fill="none" /> <rect x="100" y="800" width="100" height="100" stroke="#dddddd" stroke-width="2" fill="#dddddd41" /> <rect x="200" y="800" width="100" height="100" stroke="#dddddd" stroke-width="2" fill="#ddddddc7" /> <rect x="300" y="800" width="100" height="100" stroke="#dddddd" stroke-width="2" fill="none" /> <rect x="400" y="800" width="100" height="100" stroke="#dddddd" stroke-width="2" fill="none" /> <rect x="500" y="800" width="100" height="100" stroke="#dddddd" stroke-width="2" fill="none" /> <rect x="600" y="800" width="100" height="100" stroke="#dddddd" stroke-width="2" fill="none" /> <rect x="700" y="800" width="100" height="100" stroke="#dddddd" stroke-width="2" fill="none" /> <rect x="800" y="800" width="100" height="100" stroke="#dddddd" stroke-width="2" fill="#dddddd6c" /> <rect x="900" y="800" width="100" height="100" stroke="#dddddd" stroke-width="2" fill="#ddddddef" /> <rect x="1000" y="800" width="100" height="100" stroke="#dddddd" stroke-width="2" fill="none" /> <rect x="1100" y="800" width="100" height="100" stroke="#dddddd" stroke-width="2" fill="#dddddd8d" /> <rect x="1200" y="800" width="100" height="100" stroke="#dddddd" stroke-width="2" fill="none" /> <rect x="1300" y="800" width="100" height="100" stroke="#dddddd" stroke-width="2" fill="#dddddd0b" /> <rect x="1400" y="800" width="100" height="100" stroke="#dddddd" stroke-width="2" fill="none" /> <rect x="1500" y="800" width="100" height="100" stroke="#dddddd" stroke-width="2" fill="#ddddddaa" /> <rect x="1600" y="800" width="100" height="100" stroke="#dddddd" stroke-width="2" fill="none" /> <rect x="1700" y="800" width="100" height="100" stroke="#dddddd" stroke-width="2" fill="#dddddd26" /> <rect x="1800" y="800" width="100" height="100" stroke="#dddddd" stroke-width="2" fill="none" /> <rect x="1900" y="800" width="100" height="100" stroke="#dddddd" stroke-width="2" fill="none" /> <rect x="0" y="900" width="100" height="100" stroke="#dddddd" stroke-width="2" fill="none" /> <rect x="100" y="900" width="100" height="100" stroke="#dddddd" stroke-width="2" fill="none" /> <rect x="200" y="900" width="100" height="100" stroke="#dddddd" stroke-width="2" fill="none" /> <rect x="300" y="900" width="100" height="100" stroke="#dddddd" stroke-width="2" fill="none" /> <rect x="400" y="900" width="100" height="100" stroke="#dddddd" stroke-width="2" fill="none" /> <rect x="500" y="900" width="100" height="100" stroke="#dddddd" stroke-width="2" fill="#dddddd55" /> <rect x="600" y="900" width="100" height="100" stroke="#dddddd" stroke-width="2" fill="#dddddd82" /> <rect x="700" y="900" width="100" height="100" stroke="#dddddd" stroke-width="2" fill="none" /> <rect x="800" y="900" width="100" height="100" stroke="#dddddd" stroke-width="2" fill="none" /> <rect x="900" y="900" width="100" height="100" stroke="#dddddd" stroke-width="2" fill="none" /> <rect x="1000" y="900" width="100" height="100" stroke="#dddddd" stroke-width="2" fill="none" /> <rect x="1100" y="900" width="100" height="100" stroke="#dddddd" stroke-width="2" fill="none" /> <rect x="1200" y="900" width="100" height="100" stroke="#dddddd" stroke-width="2" fill="none" /> <rect x="1300" y="900" width="100" height="100" stroke="#dddddd" stroke-width="2" fill="#dddddde4" /> <rect x="1400" y="900" width="100" height="100" stroke="#dddddd" stroke-width="2" fill="none" /> <rect x="1500" y="900" width="100" height="100" stroke="#dddddd" stroke-width="2" fill="none" /> <rect x="1600" y="900" width="100" height="100" stroke="#dddddd" stroke-width="2" fill="none" /> <rect x="1700" y="900" width="100" height="100" stroke="#dddddd" stroke-width="2" fill="#dddddd8c" /> <rect x="1800" y="900" width="100" height="100" stroke="#dddddd" stroke-width="2" fill="none" /> <rect x="1900" y="900" width="100" height="100" stroke="#dddddd" stroke-width="2" fill="#ddddddf1" /> <rect x="0" y="1000" width="100" height="100" stroke="#dddddd" stroke-width="2" fill="none" /> <rect x="100" y="1000" width="100" height="100" stroke="#dddddd" stroke-width="2" fill="#dddddd56" /> <rect x="200" y="1000" width="100" height="100" stroke="#dddddd" stroke-width="2" fill="none" /> <rect x="300" y="1000" width="100" height="100" stroke="#dddddd" stroke-width="2" fill="none" /> <rect x="400" y="1000" width="100" height="100" stroke="#dddddd" stroke-width="2" fill="none" /> <rect x="500" y="1000" width="100" height="100" stroke="#dddddd" stroke-width="2" fill="none" /> <rect x="600" y="1000" width="100" height="100" stroke="#dddddd" stroke-width="2" fill="#dddddd50" /> <rect x="700" y="1000" width="100" height="100" stroke="#dddddd" stroke-width="2" fill="none" /> <rect x="800" y="1000" width="100" height="100" stroke="#dddddd" stroke-width="2" fill="none" /> <rect x="900" y="1000" width="100" height="100" stroke="#dddddd" stroke-width="2" fill="none" /> <rect x="1000" y="1000" width="100" height="100" stroke="#dddddd" stroke-width="2" fill="none" /> <rect x="1100" y="1000" width="100" height="100" stroke="#dddddd" stroke-width="2" fill="none" /> <rect x="1200" y="1000" width="100" height="100" stroke="#dddddd" stroke-width="2" fill="none" /> <rect x="1300" y="1000" width="100" height="100" stroke="#dddddd" stroke-width="2" fill="#dddddd2d" /> <rect x="1400" y="1000" width="100" height="100" stroke="#dddddd" stroke-width="2" fill="none" /> <rect x="1500" y="1000" width="100" height="100" stroke="#dddddd" stroke-width="2" fill="none" /> <rect x="1600" y="1000" width="100" height="100" stroke="#dddddd" stroke-width="2" fill="none" /> <rect x="1700" y="1000" width="100" height="100" stroke="#dddddd" stroke-width="2" fill="#ddddddbc" /> <rect x="1800" y="1000" width="100" height="100" stroke="#dddddd" stroke-width="2" fill="none" /> <rect x="1900" y="1000" width="100" height="100" stroke="#dddddd" stroke-width="2" fill="none" /> <rect x="0" y="1100" width="100" height="100" stroke="#dddddd" stroke-width="2" fill="none" /> <rect x="100" y="1100" width="100" height="100" stroke="#dddddd" stroke-width="2" fill="none" /> <rect x="200" y="1100" width="100" height="100" stroke="#dddddd" stroke-width="2" fill="#dddddda4" /> <rect x="300" y="1100" width="100" height="100" stroke="#dddddd" stroke-width="2" fill="#dddddda8" /> <rect x="400" y="1100" width="100" height="100" stroke="#dddddd" stroke-width="2" fill="none" /> <rect x="500" y="1100" width="100" height="100" stroke="#dddddd" stroke-width="2" fill="#dddddda1" /> <rect x="600" y="1100" width="100" height="100" stroke="#dddddd" stroke-width="2" fill="#dddddd1a" /> <rect x="700" y="1100" width="100" height="100" stroke="#dddddd" stroke-width="2" fill="none" /> <rect x="800" y="1100" width="100" height="100" stroke="#dddddd" stroke-width="2" fill="none" /> <rect x="900" y="1100" width="100" height="100" stroke="#dddddd" stroke-width="2" fill="none" /> <rect x="1000" y="1100" width="100" height="100" stroke="#dddddd" stroke-width="2" fill="none" /> <rect x="1100" y="1100" width="100" height="100" stroke="#dddddd" stroke-width="2" fill="#dddddd82" /> <rect x="1200" y="1100" width="100" height="100" stroke="#dddddd" stroke-width="2" fill="none" /> <rect x="1300" y="1100" width="100" height="100" stroke="#dddddd" stroke-width="2" fill="none" /> <rect x="1400" y="1100" width="100" height="100" stroke="#dddddd" stroke-width="2" fill="none" /> <rect x="1500" y="1100" width="100" height="100" stroke="#dddddd" stroke-width="2" fill="none" /> <rect x="1600" y="1100" width="100" height="100" stroke="#dddddd" stroke-width="2" fill="none" /> <rect x="1700" y="1100" width="100" height="100" stroke="#dddddd" stroke-width="2" fill="#ddddddf7" /> <rect x="1800" y="1100" width="100" height="100" stroke="#dddddd" stroke-width="2" fill="#dddddd1f" /> <rect x="1900" y="1100" width="100" height="100" stroke="#dddddd" stroke-width="2" fill="none" /> <rect x="0" y="1200" width="100" height="100" stroke="#dddddd" stroke-width="2" fill="none" /> <rect x="100" y="1200" width="100" height="100" stroke="#dddddd" stroke-width="2" fill="#ddddddeb" /> <rect x="200" y="1200" width="100" height="100" stroke="#dddddd" stroke-width="2" fill="none" /> <rect x="300" y="1200" width="100" height="100" stroke="#dddddd" stroke-width="2" fill="none" /> <rect x="400" y="1200" width="100" height="100" stroke="#dddddd" stroke-width="2" fill="none" /> <rect x="500" y="1200" width="100" height="100" stroke="#dddddd" stroke-width="2" fill="none" /> <rect x="600" y="1200" width="100" height="100" stroke="#dddddd" stroke-width="2" fill="#dddddd1e" /> <rect x="700" y="1200" width="100" height="100" stroke="#dddddd" stroke-width="2" fill="none" /> <rect x="800" y="1200" width="100" height="100" stroke="#dddddd" stroke-width="2" fill="none" /> <rect x="900" y="1200" width="100" height="100" stroke="#dddddd" stroke-width="2" fill="none" /> <rect x="1000" y="1200" width="100" height="100" stroke="#dddddd" stroke-width="2" fill="none" /> <rect x="1100" y="1200" width="100" height="100" stroke="#dddddd" stroke-width="2" fill="none" /> <rect x="1200" y="1200" width="100" height="100" stroke="#dddddd" stroke-width="2" fill="none" /> <rect x="1300" y="1200" width="100" height="100" stroke="#dddddd" stroke-width="2" fill="#ddddddef" /> <rect x="1400" y="1200" width="100" height="100" stroke="#dddddd" stroke-width="2" fill="#dddddd93" /> <rect x="1500" y="1200" width="100" height="100" stroke="#dddddd" stroke-width="2" fill="none" /> <rect x="1600" y="1200" width="100" height="100" stroke="#dddddd" stroke-width="2" fill="#dddddde8" /> <rect x="1700" y="1200" width="100" height="100" stroke="#dddddd" stroke-width="2" fill="#dddddd2c" /> <rect x="1800" y="1200" width="100" height="100" stroke="#dddddd" stroke-width="2" fill="none" /> <rect x="1900" y="1200" width="100" height="100" stroke="#dddddd" stroke-width="2" fill="none" /> <rect x="0" y="1300" width="100" height="100" stroke="#dddddd" stroke-width="2" fill="none" /> <rect x="100" y="1300" width="100" height="100" stroke="#dddddd" stroke-width="2" fill="#dddddd74" /> <rect x="200" y="1300" width="100" height="100" stroke="#dddddd" stroke-width="2" fill="none" /> <rect x="300" y="1300" width="100" height="100" stroke="#dddddd" stroke-width="2" fill="none" /> <rect x="400" y="1300" width="100" height="100" stroke="#dddddd" stroke-width="2" fill="none" /> <rect x="500" y="1300" width="100" height="100" stroke="#dddddd" stroke-width="2" fill="none" /> <rect x="600" y="1300" width="100" height="100" stroke="#dddddd" stroke-width="2" fill="none" /> <rect x="700" y="1300" width="100" height="100" stroke="#dddddd" stroke-width="2" fill="none" /> <rect x="800" y="1300" width="100" height="100" stroke="#dddddd" stroke-width="2" fill="none" /> <rect x="900" y="1300" width="100" height="100" stroke="#dddddd" stroke-width="2" fill="none" /> <rect x="1000" y="1300" width="100" height="100" stroke="#dddddd" stroke-width="2" fill="#ddddddc4" /> <rect x="1100" y="1300" width="100" height="100" stroke="#dddddd" stroke-width="2" fill="none" /> <rect x="1200" y="1300" width="100" height="100" stroke="#dddddd" stroke-width="2" fill="none" /> <rect x="1300" y="1300" width="100" height="100" stroke="#dddddd" stroke-width="2" fill="none" /> <rect x="1400" y="1300" width="100" height="100" stroke="#dddddd" stroke-width="2" fill="none" /> <rect x="1500" y="1300" width="100" height="100" stroke="#dddddd" stroke-width="2" fill="#dddddd27" /> <rect x="1600" y="1300" width="100" height="100" stroke="#dddddd" stroke-width="2" fill="#ddddddfd" /> <rect x="1700" y="1300" width="100" height="100" stroke="#dddddd" stroke-width="2" fill="none" /> <rect x="1800" y="1300" width="100" height="100" stroke="#dddddd" stroke-width="2" fill="#ddddddfe" /> <rect x="1900" y="1300" width="100" height="100" stroke="#dddddd" stroke-width="2" fill="#dddddd9c" /> </g> </g> <defs> <radialGradient id="maskRadialGradient" > <stop offset="0" stop-color="white" /> <stop offset="1" stop-color="white" stop-opacity="0" /> </radialGradient> </defs> </svg>